<svg xmlns="http://www.w3.org/2000/svg" viewBox="0 0 512 512">
  <defs>
    <linearGradient id="bg" x1="0%" y1="0%" x2="100%" y2="100%">
      <stop offset="0%" style="stop-color:#0052CC"/>
      <stop offset="100%" style="stop-color:#0065FF"/>
    </linearGradient>
  </defs>
  <!-- Background -->
  <rect width="512" height="512" rx="96" fill="url(#bg)"/>
  <!-- Food/Menu icon -->
  <g fill="white">
    <!-- Book/Menu base -->
    <path d="M128 96 C128 80 140 68 156 68 L256 68 L256 380 L156 380 C140 380 128 368 128 352 Z" opacity="0.9"/>
    <path d="M256 68 L356 68 C372 68 384 80 384 96 L384 352 C384 368 372 380 356 380 L256 380 Z" opacity="0.9"/>
    <!-- Center line -->
    <rect x="248" y="68" width="16" height="312" rx="4"/>
    <!-- Food items on left page -->
    <circle cx="180" cy="140" r="24" opacity="0.7"/>
    <rect x="156" y="180" width="72" height="8" rx="4" opacity="0.5"/>
    <circle cx="180" cy="230" r="24" opacity="0.7"/>
    <rect x="156" y="270" width="72" height="8" rx="4" opacity="0.5"/>
    <!-- Food items on right page -->
    <circle cx="332" cy="140" r="24" opacity="0.7"/>
    <rect x="284" y="180" width="72" height="8" rx="4" opacity="0.5"/>
    <circle cx="332" cy="230" r="24" opacity="0.7"/>
    <rect x="284" y="270" width="72" height="8" rx="4" opacity="0.5"/>
    <!-- Fork and knife at bottom -->
    <path d="M192 400 L192 444 L200 444 L200 424 L208 424 L208 444 L216 444 L216 400 C216 392 208 388 204 388 C200 388 192 392 192 400 Z" opacity="0.8"/>
    <path d="M296 388 L296 444 L304 444 L304 420 L312 420 L330 388 L318 388 L308 404 L308 388 Z" opacity="0.8"/>
  </g>
</svg>
